# xmcd
#
# Track frame offsets:
#	150
#	21854
#	42233
#	63817
#	85922
#	103836
#	122567
#	144960
#	165778
#	189435
#
# Disc length: 2809 seconds
#
# Revision: 0
# Processed by: cddbd v1.5.2PL0 Copyright (c) Steve Scherf et al.
# Submitted via: EasyCDDAExtractor 12.0.1.1
#
DISCID=740af70a
DTITLE=Chandra Currelley - Love Songs
DYEAR=2005
DGENRE=R&B
TTITLE0=I Want You
TTITLE1=You Protected My Heart
TTITLE2=Love Again
TTITLE3=Unconditional Love
TTITLE4=Someone Made For Me
TTITLE5=No Secrets
TTITLE6=When You Wait
TTITLE7=Time With You
TTITLE8=Sure About That
TTITLE9=Squeeze Me
EXTD=
EXTT0=
EXTT1=
EXTT2=
EXTT3=
EXTT4=
EXTT5=
EXTT6=
EXTT7=
EXTT8=
EXTT9=
PLAYORDER=
